# xmcd
#
# Track frame offsets:
#	150
#	14960
#	30114
#	44117
#	61352
#	85101
#	103317
#	121283
#	141031
#	156480
#	173372
#	183791
#	198296
#	215769
#	249136
#	265520
#	280477
#	306664
#
# Disc length: 4255 seconds
#
# Revision: 2
# Processed by: cddbd v1.5.2PL0 Copyright (c) Steve Scherf et al.
# Submitted via: EasyCDDAExtractor 15.3.0.1
#
DISCID=03109d12
DTITLE=Lucero - En Concierto
DYEAR=2013
DGENRE=Latin
TTITLE0=No Pudiste Amar Asi (Version Estudio)
TTITLE1=Te Deseo Lo Mejor (Version Estudio)
TTITLE2=Indispensable
TTITLE3=Electricidad
TTITLE4=Popurri Telenovela (Lazos De Amor, Los Parientes Pobres, Cuando Llega 
TTITLE4=El Amor, Dueña De Tu Amor, Mi Destino Eres Tu)
TTITLE5=Veleta
TTITLE6=Popurri Niña (Con Tan Pocos Años, Te Prometo, Fuego Y Ternura)
TTITLE7=Cuentame
TTITLE8=Vete Con Ella
TTITLE9=No Me Dejes Ir
TTITLE10=Si Nos Dejan
TTITLE11=Tu Carcel
TTITLE12=Mi Ciudad
TTITLE13=Popurri Jose Alfredo Jimenez (La Media Vuelta, Que Bonito Amor, Un Mu
TTITLE13=ndo Raro, No Volvere)
TTITLE14=Tristes Recuerdos
TTITLE15=Aca Entre Nos
TTITLE16=Popurri Juan Gabriel (El Noa Noa, En Esta Primavera, No Tengo Dinero,
TTITLE16=Sera Mañana, El Noa Noa)
TTITLE17=Llorar
EXTD=
EXTT0=
EXTT1=
EXTT2=
EXTT3=
EXTT4=
EXTT5=
EXTT6=
EXTT7=
EXTT8=
EXTT9=
EXTT10=
EXTT11=
EXTT12=
EXTT13=
EXTT14=
EXTT15=
EXTT16=
EXTT17=
PLAYORDER=
